<?xml version="1.0" encoding="utf-8"?>
<!-- Generated by Shoe Palace, Inc. http://www.shoepalace.com/ -->
<!DOCTYPE svg PUBLIC "-//W3C//DTD SVG 1.1//EN" "http://www.w3.org/Graphics/SVG/1.1/DTD/svg11.dtd">
<svg preserveAspectRatio="xMidYMid" width="256px" height="256px" viewBox="0 0 256 256" xmlns="http://www.w3.org/2000/svg" version="1.1" xmlns:xlink="http://www.w3.org/1999/xlink">
	<path fill="#010101" d="M208.6,106.8C236.7,94.5,255,76,256,55.4c0,0-7.4-5.7-31.3-14.5c-21-7.7-37-9.5-37-9.5l0.1,45.8c0,6.8-2.7,13.8-7.9,20 c-15.9-3.8-33.4-6-51.8-6s-36,2.2-51.8,6c-5.2-6.2-7.9-13.2-7.9-20l0.1-45.8c0,0-16,1.8-37,9.5C7.4,49.7,0,55.4,0,55.4 C1,76,19.3,94.5,47.4,106.8C19.3,119.2,1,137.7,0,158.3c0,0,7.4,5.7,31.3,14.5c21,7.7,37,9.5,37,9.5l-0.1-45.8 c0-6.8,2.7-13.8,7.9-20c15.9,3.8,33.4,6,51.8,6l0,0c18.4,0,36-2.2,51.8-6c5.2,6.2,7.9,13.2,7.9,20l-0.1,45.8c0,0,16-1.8,37-9.5 c23.9-8.8,31.3-14.5,31.3-14.5C255,137.7,236.7,119.2,208.6,106.8z M127.4,117.1c-16.6,0-30.1-4.1-40.1-10.3 c9.9-6.2,23.5-10.3,40.1-10.3h0.5l0,0h0.5c16.6,0,30.1,4.1,40.1,10.3c-9.9,6.2-23.5,10.3-40.1,10.3H127.4z"/>
	<path fill="#010101" d="M8.4,224.5c-5.8,0-5.9-4.4-5.9-6.2v-8.1c0-0.5,0-1.2,1-1.2h3c1,0,0.9,0.7,0.9,1.2v8.1c0,0.6,0.1,2.1,2.2,2.1h5.1 c2.1,0,2.2-1.5,2.2-2.1v-8.1c0-0.5-0.1-1.2,0.9-1.2h3c1.1,0,1,0.7,1,1.2v8.1c0,1.7-0.1,6.2-5.9,6.2 M36.4,223.5 c-2.1-2.8-5-6.2-8-9.9v9.8c0,0.4,0.1,1.1-0.9,1.1h-2.8c-1,0-0.9-0.6-0.9-1.1v-13.2c0-0.5,0-1.1,0.9-1.1h5.5c1.5,0,3.8,3.1,5.2,5.2 c1.1,1.6,3.2,3.9,4.6,5.7v-9.7c0-0.5-0.1-1.1,1-1.1h3.1c1,0,0.9,0.7,0.9,1.1v14.2h-5.6C38,224.5,37.5,224.6,36.4,223.5 M46.7,224.5 v-15.4h13.6c0.8,0,6.4-0.1,6.4,5.7c0,6,0.6,9.6-6.3,9.6H53l-1.6-3.2v3.2 M59.5,220.5c2.5,0,2.3-2.4,2.3-3.4c0-3.6-1-3.8-2.6-3.8 h-7.7v7.2H59.5L59.5,220.5z M72,209.2h12.5c1.1,0,0.9,0.7,0.9,2c0,1.2,0.2,1.9-0.9,1.9h-9.9c-0.3,0-1.2-0.1-1.2,0.8 c0,0.9-0.2,1.3,0.8,1.3H83l1.4,2.8c0.2,0.4,0.2,0.7-0.6,0.7h-9.1l-1.4-2.7v4c0,0.9,0.8,0.8,1.1,0.8h10.3c1,0,0.9,0.7,0.9,1.9 s0.1,1.9-0.9,1.9h-13c-1.1,0-3.2-0.3-3.2-3.7v-8.5C68.5,211.5,69,209.2,72,209.2 M88.8,209.1h13.7c1.8,0,4.5,0,4.5,4.9 c0,3.2-0.7,3.4-2.2,4.4c2.5,0.4,2.1,3.6,2.1,5.2c0,0.8-0.3,0.8-0.5,0.8h-4c-0.8,0-0.6-1.3-0.6-2c0-1.9-1.1-1.8-1.5-1.8h-5.9 c-0.6-1-1.7-3.2-1.7-3.2v6.4l-0.8,0.6h-4l-0.4-0.5v-13.5C87.5,209.5,88.2,209.1,88.8,209.1 M99.7,213.2h-6.1c-1,0-1,0.3-1,0.6v2.8 h6.3c3,0,3-0.8,3-1.6C101.9,213.5,101.8,213.2,99.7,213.2 M130.5,209.2c1,0,2,0.5,3,2.5c0.7,1.5,5.7,10.5,6.7,12.3v0.5H135 l-1.5-2.7h-6.3l-1.4-3.1c-0.4,0.6-2.5,4.6-3.2,5.8h-5.2v-0.3c1.1-2,8.3-15,8.3-15 M128.9,213.5l-2.5,4.6l0.2,0.2h4.7l0.2-0.2 l-2.4-4.6H128.9 M143.6,209.1h13.7c1.8,0,4.5,0,4.5,4.9c0,3.2-0.7,3.4-2.2,4.4c2.5,0.4,2.1,3.6,2.1,5.2c0,0.8-0.3,0.8-0.6,0.8h-4 c-0.8,0-0.6-1.3-0.6-2c0-1.9-1.1-1.8-1.5-1.8h-5.9c-0.6-1-1.7-3.2-1.7-3.2v6.4l-0.7,0.6h-4l-0.4-0.5v-13.5 C142.3,209.5,143,209.1,143.6,209.1 M154.5,213.2h-6.1c-1,0-1,0.3-1,0.6v2.8h6.3c3,0,3-0.8,3-1.6 C156.7,213.5,156.6,213.2,154.5,213.2 M173.8,224.5c-1-1.9-3.9-7.2-5.8-10.7v9.6c0,0.4,0.1,1.1-0.9,1.1h-2.8c-1,0-1-0.7-1-1.1 v-13.2c0-0.5-0.1-1.1,1-1.1h4.8c0.7,0,1.7-0.2,2.9,2.1c0.9,1.8,2.7,5.6,3.9,7.6c1.3-2,3.1-5.8,4-7.6c1.1-2.3,2.1-2.1,2.9-2.1h4.8 c1,0,0.9,0.7,0.9,1.1v13.2c0,0.4,0.1,1.1-0.9,1.1h-2.8c-1,0-0.9-0.7-0.9-1.1v-9.6c-1.9,3.5-4.7,8.7-5.8,10.7 M194.6,224.5 c-4.5,0-4.3-4.9-4.3-8c0-2.9-0.3-7.4,5.4-7.4h10.1c5.7,0,5.3,4.6,5.3,7.4c0,3.2,0.2,8-4.4,8 M203.7,220.6c2.3,0,2.2-2.4,2.2-4 c0-1.4,0.3-3.7-2.7-3.7h-5.1c-3,0-2.6,2.2-2.6,3.7c0,1.6-0.1,4,2.2,4H203.7z M218.6,224.5c-5.8,0-5.9-4.4-5.9-6.2v-8.1 c0-0.5,0-1.2,1-1.2h3c1,0,0.9,0.7,0.9,1.2v8.1c0,0.6,0.1,2.1,2.2,2.1h5.1c2.1,0,2.2-1.5,2.2-2.1v-8.1c0-0.5,0-1.2,0.9-1.2h3 c1.1,0,1,0.7,1,1.2v8.1c0,1.7-0.1,6.2-6,6.2 M235.3,209.1H249c1.8,0,4.5,0,4.5,4.9c0,3.2-0.7,3.4-2.2,4.4c2.5,0.4,2.2,3.6,2.2,5.2 c0,0.8-0.3,0.8-0.6,0.8h-4c-0.8,0-0.6-1.3-0.6-2c0-1.9-1.1-1.8-1.5-1.8h-5.9c-0.6-1-1.7-3.2-1.7-3.2v6.4l-0.8,0.6h-4L234,224v-13.5 C234,209.5,234.7,209.1,235.3,209.1 M246.2,213.2h-6.1c-1,0-1,0.3-1,0.6v2.8h6.3c3,0,3-0.8,3-1.6 C248.4,213.5,248.3,213.2,246.2,213.2"/>
</svg>
